<svg width="1024" height="1024" xmlns="http://www.w3.org/2000/svg" p-id="1428" version="1.1" class="icon" t="1642822876259"> <g> <title>Layer 1</title> <path id="svg_1" p-id="1429" fill="#FFE1B7" d="m297.89091,1000.72727c-23.27273,0 -44.21818,-18.61818 -46.54545,-41.89091l-65.16364,-772.65454l651.63636,0l-65.16364,772.65454c-2.32727,23.27273 -23.27272,41.89091 -46.54545,41.89091l-428.21818,0z"/> <path id="svg_3" p-id="1431" fill="#333333" d="m726.10909,1024l-428.21818,0c-37.23636,0 -67.49091,-27.92727 -69.81818,-62.83636l-65.16364,-772.65455c0,-6.98182 2.32727,-13.96363 6.98182,-18.61818c4.65454,-4.65455 9.30909,-6.98182 16.29091,-6.98182l651.63636,0c6.98182,0 11.63637,2.32727 16.29091,6.98182c4.65455,4.65454 6.98182,11.63636 6.98182,18.61818l-65.16364,772.65455c-4.65454,34.90909 -34.90909,62.83636 -69.81818,62.83636zm-514.32727,-814.54545l62.83636,747.05454c0,11.63636 11.63637,20.94546 23.27273,20.94546l425.89091,0c11.63636,0 23.27272,-9.3091 23.27272,-20.94546l65.16364,-747.05455l-600.43636,0l0,0.00001z"/> <path id="svg_4" p-id="1432" fill="#F79548" d="m209.45454,744.72727l-23.27272,-325.81818l651.63636,0l-23.27273,325.81818l-605.09091,0z"/> <path id="svg_6" p-id="1434" fill="#333333" d="m814.54545,768l-605.0909,0c-11.63637,0 -23.27273,-9.30909 -23.27273,-20.94546l-23.27273,-325.81818c0,-6.98181 2.32727,-11.63636 6.98182,-18.61818c4.65454,-4.65454 9.30909,-6.98182 16.29091,-6.98182l651.63636,0c6.98182,0 11.63637,2.32728 16.29091,6.98182c4.65455,4.65455 6.98182,11.63637 6.98182,18.61818l-23.27273,325.81818c0,11.63637 -11.63636,20.94546 -23.27273,20.94546zm-584.14545,-46.54545l560.87273,0l20.94545,-279.27273l-600.43636,0l18.61818,279.27273z"/> <path id="svg_7" p-id="1435" fill="#EDF1F9" d="m162.90909,186.18182l0,-58.18182c0,-18.61818 16.29091,-34.90909 34.90909,-34.90909l23.27273,0c18.61818,0 34.90909,-16.29091 34.90909,-34.90909s16.29091,-34.90909 34.90909,-34.90909l442.18182,0c18.61818,0 34.90909,16.29091 34.90909,34.90909s16.29091,34.90909 34.90909,34.90909l23.27273,0c18.61818,0 34.90909,16.29091 34.90909,34.90909l0,58.18182l-698.18182,0z"/> <path id="svg_10" p-id="1438" fill="#EDF1F9" d="m512,581.81818m-69.81818,0a69.81818,69.81818 0 1 0 139.63636,0a69.81818,69.81818 0 1 0 -139.63636,0z"/> <path id="svg_11" p-id="1439" fill="#006591" d="m651.63636,558.54545l-48.87272,0c-9.3091,-39.56363 -46.54546,-69.81818 -90.76364,-69.81818s-79.12727,30.25455 -90.76364,69.81818l-48.87272,0c-13.96364,0 -23.27273,9.3091 -23.27273,23.27273s9.30909,23.27273 23.27273,23.27273l48.87272,0c9.3091,39.56363 46.54546,69.81818 90.76364,69.81818s79.12727,-30.25454 90.76364,-69.81818l48.87272,0c13.96364,0 23.27273,-9.30909 23.27273,-23.27273s-9.30909,-23.27273 -23.27273,-23.27273zm-139.63636,69.81819c-25.6,0 -46.54546,-20.94546 -46.54546,-46.54546s20.94546,-46.54545 46.54546,-46.54545s46.54545,20.94545 46.54545,46.54545s-20.94545,46.54546 -46.54545,46.54546z"/> <path id="svg_12" p-id="1440" fill="#333333" d="m826.18182,69.81818l-23.27273,0c-6.98182,0 -11.63636,-4.65454 -11.63636,-11.63636c0,-32.58182 -25.6,-58.18182 -58.18182,-58.18182l-442.18182,0c-32.58182,0 -58.18182,25.6 -58.18182,58.18182c0,6.98182 -4.65454,11.63636 -11.63636,11.63636l-23.27273,0c-32.58182,0 -58.18182,25.6 -58.18182,58.18182l0,58.18182c0,13.96363 9.30909,23.27272 23.27273,23.27272l698.18182,0c13.96363,0 23.27273,-9.30909 23.27273,-23.27272l0,-58.18182c0,-32.58182 -25.6,-58.18182 -58.18182,-58.18182zm-546.90909,-11.63636c0,-6.98182 4.65454,-11.63637 11.63636,-11.63636l442.18182,0c6.98182,0 11.63636,4.65454 11.63636,11.63636c0,4.65454 0,6.98182 2.32727,11.63636l-470.10909,0c2.32728,-4.65454 2.32728,-6.98182 2.32728,-11.63636zm558.54545,104.72727l-651.63636,0l0,-34.90909c0,-6.98182 4.65454,-11.63636 11.63636,-11.63636l628.36364,0c6.98182,0 11.63636,4.65454 11.63636,11.63636l0,34.90909z"/> </g> </svg>