<?xml version="1.0" encoding="utf-8"?>
<!-- Generator: Adobe Illustrator 26.0.3, SVG Export Plug-In . SVG Version: 6.00 Build 0)  -->
<svg version="1.1" id="图层_1" xmlns="http://www.w3.org/2000/svg" xmlns:xlink="http://www.w3.org/1999/xlink" x="0px" y="0px"
	 viewBox="0 0 200 200" style="enable-background:new 0 0 200 200;" xml:space="preserve">
<style type="text/css">
	.st0{fill:#FFB900;}
	.st1{fill:#333333;}
	.st2{fill:#FF7400;}
</style>
<path class="st0" d="M155.9,38.6V43h-9.8v112.8c0,3-2.5,5.5-5.5,5.5H50.9V44.1c0-3,2.5-5.5,5.5-5.5C56.4,38.6,155.9,38.6,155.9,38.6
	z"/>
<path class="st1" d="M140.5,164.1H48.3v-120c0-4.5,3.8-8.1,8.1-8.1h99.5c1.4,0,2.7,1.2,2.7,2.7v7.2h-9.8v110
	C148.8,160.3,145,164.1,140.5,164.1L140.5,164.1z M53.6,158.6h87c1.6,0,2.8-1.2,2.8-2.8V41.4H56.6c-1.6,0-2.8,1.2-2.8,2.8v114.4
	H53.6z"/>
<path class="st2" d="M127.2,65.6H66.2c-2.2,0-3.9,1.7-3.9,3.9s1.7,3.9,3.9,3.9h60.9c2.2,0,3.9-1.7,3.9-3.9S129.4,65.6,127.2,65.6z
	 M127.2,81.2H66.2c-2.2,0-3.9,1.7-3.9,3.9s1.7,3.9,3.9,3.9h60.9c2.2,0,3.9-1.7,3.9-3.9S129.4,81.2,127.2,81.2z M99.1,100H66.2
	c-2.2,0-3.9,1.7-3.9,3.9s1.7,3.9,3.9,3.9h32.8c2.2,0,3.9-1.7,3.9-3.9S101.3,100,99.1,100z M145.8,55.2v-7.3c0-5.2,4.2-9.4,9.4-9.4
	h1.1c4.5,0,8.3,3.8,8.3,8.3s-3.8,8.4-8.4,8.4H145.8z"/>
<path class="st1" d="M156.2,57.7h-12.8v-9.8c0-6.6,5.3-11.9,11.9-11.9h0.9c5.9,0,10.8,4.8,10.8,10.8S162.2,57.7,156.2,57.7z
	 M148.3,52.7h8c3.3,0,5.9-2.7,5.9-5.9c0-3.3-2.7-5.9-5.9-5.9h-0.9c-3.8,0-6.9,3.1-6.9,6.9L148.3,52.7z"/>
<path class="st2" d="M139.5,161.6H49.1c-5,0-9.4-3.3-10.9-8.1l-0.3-0.9c-0.2-0.6-0.3-1.1-0.3-1.7c0-3.3,2.7-5.9,5.9-5.9h85.6
	c3.3,0,6.1,2.2,7,5.3L139.5,161.6L139.5,161.6z"/>
<path class="st1" d="M142,161.4c0.5,1.4-0.6,2.7-2,2.7H49.1c-6.1,0-11.6-4.1-13.3-9.8l-0.3-0.9c-0.2-0.8-0.3-1.6-0.3-2.3
	c0-4.7,3.8-8.4,8.4-8.4h85.5c4.4,0,8.3,3,9.4,7L142,161.4L142,161.4z M43.8,147.3c-1.9,0-3.6,1.6-3.6,3.6c0,0.3,0,0.6,0.2,0.9
	l0.3,0.9c1.1,3.8,4.5,6.4,8.4,6.4h87.2l-2.5-8.3c-0.6-2-2.5-3.6-4.7-3.6H43.8L43.8,147.3z"/>
</svg>
