<?xml version="1.0" encoding="utf-8"?>
<!-- Generator: Adobe Illustrator 26.0.3, SVG Export Plug-In . SVG Version: 6.00 Build 0)  -->
<svg version="1.1" id="图层_1" xmlns="http://www.w3.org/2000/svg" xmlns:xlink="http://www.w3.org/1999/xlink" x="0px" y="0px"
	 viewBox="0 0 200 200" style="enable-background:new 0 0 200 200;" xml:space="preserve">
<style type="text/css">
	.st0{fill:#FFB900;}
	.st1{fill:#333333;}
	.st2{fill:#FFFFFF;}
</style>
<path class="st0" d="M40.2,89.2c0,32.3,26.2,58.4,58.4,58.4c32.3,0,58.4-26.2,58.4-58.4c0,0,0,0,0,0c0-32.3-26.2-58.4-58.4-58.4
	C66.3,30.8,40.2,56.9,40.2,89.2C40.2,89.2,40.2,89.2,40.2,89.2z"/>
<path class="st1" d="M98.6,150.2c-15.6,0-31.2-5.9-43.1-17.8c-23.8-23.8-23.8-62.3,0-86.1s62.3-23.7,86.1,0s23.8,62.3,0,86.1
	C129.8,144.2,114.2,150.2,98.6,150.2z M98.6,33.4c-14.4,0-28.6,5.5-39.5,16.4c-21.7,21.7-21.7,57.2,0,79.1
	c21.7,21.7,57.2,21.7,79.1,0c21.7-21.7,21.7-57.2,0-79.1C127.2,38.8,113,33.4,98.6,33.4z"/>
<path class="st2" d="M106.1,112.3l-1.1,3.8l-3.1-2.3c-4.5-3.3-9.8-5-15.5-5c-14.5,0-26.4,11.9-26.4,26.4s11.9,26.4,26.4,26.4
	c9.5,0,18.1-5,22.8-13.1l2-3.4l2.5,3c7.2,8.6,17.8,13.6,29.2,13.6c21.2,0,38.4-17.2,38.4-38.4S164.1,84.8,143,84.8
	C125.8,84.8,110.8,96.1,106.1,112.3z"/>
<path class="st1" d="M143,164.4c-12,0-23.6-5.3-31.4-14.5c-5.2,8.9-14.8,14.5-25.2,14.5c-16.1,0-29.2-13.1-29.2-29.2
	s13.1-29.2,29.2-29.2c6.2,0,12,1.9,17,5.5c5.2-17.3,21.4-29.5,39.5-29.5c22.7,0,41.2,18.4,41.2,41.3
	C184.1,145.9,165.6,164.4,143,164.4L143,164.4z M110.6,140.3l5,5.9c6.9,8,16.7,12.7,27.2,12.7c19.7,0,35.6-15.9,35.6-35.6
	c0.2-19.7-15.9-35.8-35.5-35.8c-15.8,0-29.8,10.5-34.2,25.6l-2.2,7.5l-6.2-4.5c-4.1-3-8.9-4.5-13.9-4.5c-13.1,0-23.6,10.6-23.6,23.6
	c0,13.1,10.6,23.6,23.6,23.6c8.4,0,16.2-4.5,20.5-11.7L110.6,140.3L110.6,140.3z"/>
<path class="st2" d="M72.8,133.4l-2.5,0.6l-0.8-2.5c-3-9.4-11.9-15.9-21.9-15.9c-12.7,0-23,10.3-23,23s10.3,23,23,23
	c5.3,0,10.5-1.9,14.5-5.2l2-1.7l1.7,2c2.7,3.1,6.6,4.8,10.8,4.8c8,0,14.4-6.4,14.4-14.4c0-8-6.4-14.4-14.4-14.4
	C75.5,132.8,74.1,133,72.8,133.4z"/>
<path class="st1" d="M76.7,164.4c-4.8,0-9.7-2.2-12.8-5.8c-4.5,3.8-10.3,5.8-16.2,5.8c-14.2,0-25.8-11.6-25.8-25.8
	s11.6-25.8,25.8-25.8c11.2,0,21.1,7.2,24.5,17.8c1.6-0.5,3.1-0.6,4.7-0.6c9.5,0,17.2,7.7,17.2,17.2S86.2,164.4,76.7,164.4z
	 M64.5,150.9l3.4,3.9c2.2,2.5,5.5,3.9,8.8,3.9c6.4,0,11.7-5.2,11.7-11.7s-5.2-11.7-11.7-11.7c-1.1,0-2.2,0.2-3.1,0.5l-5.2,1.7
	l-1.6-5c-2.7-8.4-10.5-14.1-19.2-14.1c-11.1,0-20.3,9.1-20.3,20.3s9.1,20.3,20.3,20.3c4.7,0,9.2-1.6,12.8-4.5L64.5,150.9z"/>
</svg>
