<?xml version="1.0" encoding="utf-8"?>
<!-- Generator: Adobe Illustrator 26.0.3, SVG Export Plug-In . SVG Version: 6.00 Build 0)  -->
<svg version="1.1" id="图层_1" xmlns="http://www.w3.org/2000/svg" xmlns:xlink="http://www.w3.org/1999/xlink" x="0px" y="0px"
	 viewBox="0 0 200 200" style="enable-background:new 0 0 200 200;" xml:space="preserve">
<style type="text/css">
	.st0{fill:#09C45E;}
	.st1{fill:#333333;}
	.st2{fill:#FFFFFF;}
</style>
<path class="st0" d="M21.2,99.2c0,43.1,34.9,78,78,78s78-34.9,78-78c0,0,0,0,0,0c0-43.1-34.9-78-78-78
	C56.2,21.2,21.3,56.1,21.2,99.2C21.2,99.2,21.2,99.2,21.2,99.2z"/>
<path class="st1" d="M99.2,179.7c-21.6,0-41.7-8.4-56.9-23.6s-23.6-35.5-23.6-56.9c0-21.6,8.4-41.7,23.6-56.9s35.3-23.6,56.9-23.6
	s41.7,8.4,56.9,23.6c15.2,15.2,23.6,35.3,23.6,56.9s-8.4,41.7-23.6,56.9C140.9,171.4,120.8,179.7,99.2,179.7z M99.2,23.9
	c-20.2,0-39.1,7.8-53.3,22s-22,33.1-22,53.3s7.8,39.1,22,53.3s33.1,22,53.3,22s39.1-7.8,53.3-22s22-33.1,22-53.3s-7.8-39.1-22-53.3
	C138.4,31.7,119.4,23.9,99.2,23.9z"/>
<path class="st2" d="M100,125l-29.4,15.5l5.6-32.8L52.5,84.5l32.8-4.7L100,50l14.7,29.8l32.8,4.7l-23.7,23.1l5.6,32.8L100,125z"/>
</svg>
