<?xml version="1.0" standalone="no"?><!DOCTYPE svg PUBLIC "-//W3C//DTD SVG 1.1//EN" "http://www.w3.org/Graphics/SVG/1.1/DTD/svg11.dtd"><svg t="1645876183649" class="icon" viewBox="0 0 1024 1024" version="1.1" xmlns="http://www.w3.org/2000/svg" p-id="2001" xmlns:xlink="http://www.w3.org/1999/xlink" width="200" height="200"><defs><style type="text/css"></style></defs><path d="M512 512m-512 0a512 512 0 1 0 1024 0 512 512 0 1 0-1024 0Z" fill="#FFFFFF" p-id="2002"></path><path d="M508 508m-399.2 0a399.2 399.2 0 1 0 798.4 0 399.2 399.2 0 1 0-798.4 0Z" fill="#09C45E" p-id="2003"></path><path d="M508 920c-110.4 0-213.6-43.2-291.2-120.8S96 617.6 96 508c0-110.4 43.2-213.6 120.8-291.2S397.6 96 508 96c110.4 0 213.6 43.2 291.2 120.8S920 397.6 920 508c0 110.4-43.2 213.6-120.8 291.2-77.6 78.4-180.8 120.8-291.2 120.8z m0-797.6c-103.2 0-200 40-272.8 112.8-72.8 72.8-112.8 169.6-112.8 272.8 0 103.2 40 200 112.8 272.8 72.8 72.8 169.6 112.8 272.8 112.8 103.2 0 200-40 272.8-112.8 72.8-72.8 112.8-169.6 112.8-272.8 0-103.2-40-200-112.8-272.8-72-72.8-169.6-112.8-272.8-112.8z" fill="#333333" p-id="2004"></path><path d="M512 640l-150.4 79.2 28.8-168-121.6-118.4 168-24L512 256l75.2 152.8 168 24-121.6 118.4 28.8 168z" fill="#FFFFFF" p-id="2005"></path></svg>