<?xml version="1.0" encoding="utf-8"?>
<!-- Generator: Adobe Illustrator 26.0.3, SVG Export Plug-In . SVG Version: 6.00 Build 0)  -->
<svg version="1.1" id="图层_1" xmlns="http://www.w3.org/2000/svg" xmlns:xlink="http://www.w3.org/1999/xlink" x="0px" y="0px"
	 viewBox="0 0 200 200" style="enable-background:new 0 0 200 200;" xml:space="preserve">
<style type="text/css">
	.st0{fill:#FFB900;}
	.st1{fill:#333333;}
	.st2{fill:#FF7400;}
</style>
<path class="st0" d="M24.8,100c0,41.5,33.6,75.2,75.2,75.2s75.2-33.6,75.2-75.2c0,0,0,0,0,0c0-41.5-33.6-75.2-75.2-75.2
	C58.5,24.8,24.8,58.5,24.8,100C24.8,100,24.8,100,24.8,100z"/>
<path class="st1" d="M100,178c-20,0-39.8-7.7-55.2-22.8c-30.3-30.3-30.3-79.8,0-110.2s79.8-30.3,110.2,0s30.3,79.8,0,110.2
	C140,170.3,120,178,100,178z M100,27.7c-18.6,0-37,7-51.2,21.2c-28.3,28.3-28.3,74.2,0,102.5s74.2,28.3,102.5,0s28.3-74.2,0-102.5
	C137.2,34.7,118.6,27.7,100,27.7z"/>
<path class="st2" d="M109.1,121.6H90.2l-4.1,20.2H70.8l16.1-80.8h25.3l16.4,80.9h-15.3L109.1,121.6z M99.2,75.9l-6.1,30.8h12.8
	l-6.2-30.8H99.2z"/>
<path class="st1" d="M131.9,144.5h-20.9l-4.1-20.2H92.5l-4.1,20.2H67.3l17.2-86.4h29.8L131.9,144.5L131.9,144.5z M115.5,139.1h9.7
	l-15.3-75.5H89.1l-15,75.5h9.7l4.1-20.2h23.4L115.5,139.1z M109.4,109.4H89.8L97,73.1h4.8L109.4,109.4z M96.6,103.9h6.1l-3.1-15
	C99.5,88.9,96.6,103.9,96.6,103.9z"/>
</svg>
