<?xml version="1.0" encoding="utf-8"?>
<!-- Generator: Adobe Illustrator 26.0.3, SVG Export Plug-In . SVG Version: 6.00 Build 0)  -->
<svg version="1.1" id="图层_1" xmlns="http://www.w3.org/2000/svg" xmlns:xlink="http://www.w3.org/1999/xlink" x="0px" y="0px"
	 viewBox="0 0 200 200" style="enable-background:new 0 0 200 200;" xml:space="preserve">
<style type="text/css">
	.st0{fill:#09C45E;}
	.st1{fill:#333333;}
	.st2{fill:#FFFFFF;}
</style>
<path class="st0" d="M45.3,35.9h109.4c2.7,0,4.7,2,4.7,4.7v26.6H40.6V40.6C40.6,38,42.7,35.9,45.3,35.9z"/>
<path class="st1" d="M161.9,69.7H38.1V40.6c0-3.9,3.3-7.2,7.2-7.2h109.4c3.9,0,7.2,3.3,7.2,7.2V69.7z M43.1,64.7h113.8V40.6
	c0-1.2-0.9-2.2-2.2-2.2H45.3c-1.2,0-2.2,0.9-2.2,2.2C43.1,40.6,43.1,64.7,43.1,64.7z"/>
<path class="st2" d="M40.6,65.6h118.8v92.2c0,2.7-2,4.7-4.7,4.7H45.3c-2.7,0-4.7-2-4.7-4.7V65.6z"/>
<path class="st1" d="M154.7,165H45.3c-3.9,0-7.2-3.3-7.2-7.2V63.1h123.8v94.7C161.9,161.7,158.6,165,154.7,165z M43.1,68.1v89.7
	c0,1.2,0.9,2.2,2.2,2.2h109.4c1.2,0,2.2-0.9,2.2-2.2V68.1C156.9,68.1,43.1,68.1,43.1,68.1z"/>
<path class="st1" d="M86.2,134.4H70.6V128h5.2V90.3h-5.2v-6.2h5.2l6.4,6.2V128h4.1C86.2,128,86.2,134.4,86.2,134.4z M78.1,45.3
	c2.7,0,4.7,2,4.7,4.7s-2,4.7-4.7,4.7s-4.7-2-4.7-4.7S75.5,45.3,78.1,45.3z M126.6,45.3c2.7,0,4.7,2,4.7,4.7s-2,4.7-4.7,4.7
	c-2.7,0-4.7-2-4.7-4.7S123.9,45.3,126.6,45.3z"/>
<path class="st0" d="M118.8,84.4h21.9v10.9h-21.9V84.4z M118.8,103.1h21.9v10.9h-21.9V103.1z M118.8,123.4h21.9v10.9h-21.9V123.4z
	 M59.4,145.3h81.2v6.2H59.4V145.3z"/>
</svg>
