<?xml version="1.0" standalone="no"?><!DOCTYPE svg PUBLIC "-//W3C//DTD SVG 1.1//EN" "http://www.w3.org/Graphics/SVG/1.1/DTD/svg11.dtd"><svg t="1645410975978" class="icon" viewBox="0 0 1024 1024" version="1.1" xmlns="http://www.w3.org/2000/svg" p-id="2143" xmlns:xlink="http://www.w3.org/1999/xlink" width="200" height="200"><defs><style type="text/css"></style></defs><path d="M0 512c0 282.4 229.6 512 512 512s512-229.6 512-512S794.4 0 512 0 0 229.6 0 512z" fill="#FFFFFF" p-id="2144"></path><path d="M232 184h560c13.6 0 24 10.4 24 24v136H208V208c0-13.6 10.4-24 24-24z" fill="#09C45E" p-id="2145"></path><path d="M828.8 356.8H195.2V208c0-20 16.8-36.8 36.8-36.8h560c20 0 36.8 16.8 36.8 36.8v148.8z m-608-25.6h582.4V208c0-6.4-4.8-11.2-11.2-11.2H232c-6.4 0-11.2 4.8-11.2 11.2v123.2z" fill="#333333" p-id="2146"></path><path d="M208 336h608v472c0 13.6-10.4 24-24 24H232c-13.6 0-24-10.4-24-24V336z" fill="#FFFFFF" p-id="2147"></path><path d="M792 844.8H232c-20 0-36.8-16.8-36.8-36.8V323.2h633.6V808c0 20-16.8 36.8-36.8 36.8z m-571.2-496V808c0 6.4 4.8 11.2 11.2 11.2h560c6.4 0 11.2-4.8 11.2-11.2V348.8H220.8z" fill="#333333" p-id="2148"></path><path d="M441.6 688h-80v-32.8h26.4V462.4h-26.4v-32h26.4l32.8 32v192.8h20.8V688zM400 232c13.6 0 24 10.4 24 24s-10.4 24-24 24-24-10.4-24-24 10.4-24 24-24z m248 0c13.6 0 24 10.4 24 24s-10.4 24-24 24-24-10.4-24-24 10.4-24 24-24z" fill="#333333" p-id="2149"></path><path d="M608 432h112v56H608v-56z m0 96h112v56H608v-56zM608 632h112v56H608v-56zM304 744h416v32H304v-32z" fill="#09C45E" p-id="2150"></path></svg>
