<?xml version="1.0" standalone="no"?><!DOCTYPE svg PUBLIC "-//W3C//DTD SVG 1.1//EN" "http://www.w3.org/Graphics/SVG/1.1/DTD/svg11.dtd"><svg t="1646104802363" class="icon" viewBox="0 0 1024 1024" version="1.1" xmlns="http://www.w3.org/2000/svg" p-id="1686" xmlns:xlink="http://www.w3.org/1999/xlink" width="200" height="200"><defs><style type="text/css"></style></defs><path d="M325.290667 299.008L235.178667 121.173333c-11.605333-22.869333-49.152-22.869333-61.098667 0L84.309333 299.008c-29.013333 57.685333-18.090667 129.365333 27.306667 174.08C137.898667 499.029333 171.349333 512 204.8 512s66.901333-12.970667 93.184-38.912c45.056-44.714667 56.32-116.394667 27.306667-174.08z m-75.434667 125.610667c-25.6 25.6-64.512 25.6-90.453333 0-23.893333-23.893333-30.037333-63.488-14.336-94.549334L204.8 212.309333l59.392 117.76c15.701333 31.061333 9.898667 70.656-14.336 94.549334zM955.733333 238.933333V170.666667h-68.266666V68.266667h-68.266667v887.466666h136.533333v-68.266666h-68.266666v-170.666667h68.266666v-68.266667h-68.266666v-170.666666h68.266666v-68.266667h-68.266666V238.933333h68.266666z m-413.696 18.090667c-11.946667-22.186667-48.469333-22.186667-60.416 0l-179.882666 337.92c-52.565333 98.645333-32.768 220.501333 48.128 296.277333 45.397333 42.666667 103.424 63.829333 161.792 63.829334s116.394667-21.504 161.792-63.829334c80.896-75.776 100.693333-197.632 48.128-296.277333l-179.541334-337.92z m84.992 584.362667a166.6048 166.6048 0 0 1-230.058666 0c-58.368-54.954667-72.704-143.018667-34.816-214.357334L512 345.770667l149.504 281.258666c38.229333 71.338667 23.893333 159.744-34.474667 214.357334z" p-id="1687"></path></svg>